<?xml version="1.0" encoding="UTF-8" standalone="no"?>
<svg
   version="1.0"
   width="414.000000pt"
   height="378.000000pt"
   viewBox="0 0 414.000000 378.000000"
   preserveAspectRatio="xMidYMid meet"
   id="svg24"
   sodipodi:docname="simpleratlogo.svg"
   inkscape:version="1.2.2 (732a01da63, 2022-12-09)"
   xmlns:inkscape="http://www.inkscape.org/namespaces/inkscape"
   xmlns:sodipodi="http://sodipodi.sourceforge.net/DTD/sodipodi-0.dtd"
   xmlns="http://www.w3.org/2000/svg"
   xmlns:svg="http://www.w3.org/2000/svg">
  <defs
     id="defs28" />
  <sodipodi:namedview
     id="namedview26"
     pagecolor="#ffffff"
     bordercolor="#000000"
     borderopacity="0.25"
     inkscape:showpageshadow="2"
     inkscape:pageopacity="0.0"
     inkscape:pagecheckerboard="0"
     inkscape:deskcolor="#d1d1d1"
     inkscape:document-units="pt"
     showgrid="false"
     inkscape:zoom="1.9880952"
     inkscape:cx="278.65868"
     inkscape:cy="214.27545"
     inkscape:window-width="3440"
     inkscape:window-height="1369"
     inkscape:window-x="2232"
     inkscape:window-y="-8"
     inkscape:window-maximized="1"
     inkscape:current-layer="g22" />
  <metadata
     id="metadata16">
Created by potrace 1.15, written by Peter Selinger 2001-2017
</metadata>
  <g
     transform="translate(0.000000,378.000000) scale(0.100000,-0.100000)"
     fill="#000000"
     stroke="none"
     id="g22">
    <path
       d="m 1115.3174,3694.024 c -159.00003,-30 -328.00003,-122 -448.00003,-242 -110,-111 -185,-243 -222,-394 -26,-103 -25,-297 0,-400 49,-194 77.91616,-499.2635 254.91616,-618.2635 L 850,1828 588.56287,1503.2934 c -27,-53 -220.98802,-316.8503 -242.98802,-399.8503 -28,-107.00004 -25,-304.00004 6,-414.99999 44,-161 122,-292 240,-402 84,-79 190.99997,-145 293.99997,-183 78,-27.999996 228.99998,-54.999996 308.99998,-54.999996 40,0 922.03,71.221556 963.03,54.221556 363,-152.999999 798,-135.999999 1152,44 414,210 694,568 789,1006.00003 29,133 32,414 5,550 -79,409 -313.9521,722.3174 -650.9521,939.3174 -130,83 -326,174 -427,197 -102,24 -175,-67 -128,-158 16,-32 27,-38 156,-87 316,-122 572.863,-319.3656 711.9521,-576.3174 109.9109,-203.0483 160,-485 128,-726 -29,-218 -90,-374.00003 -213,-546.00003 -183,-254 -453,-430 -773,-505 -116,-27 -347,-24 -470,6 -87.5928,19.45509 -333.485,63.17964 -461.2515,87.54491 l -551.5989,-46.99402 -176.1796,-6.77245 c -167,-4 -238,7 -305.99998,49 -26,16 -50,29 -53,29 -15,0 -107,69 -154,116 -95.99997,95 -152.99997,207 -177.99997,347.99995 -27,159 15,332.00004 119,487.00004 46.99997,70 312.07182,264.4431 386.79045,628.5569 14.9521,77.5868 38.5389,152.6288 -39.0479,356.024 -78.00003,39 -186.00003,119 -233.00003,172 -71,79 -117,178 -137,295 -16,91 -16,103 0,193 21,115 46,178 104,261 76,109 186,190 323.00003,240 66,23 90,27 195,26 111,0 114.6826,-300.024 188.6826,-329.024 104,-42 204,-118 284,-217 71,-89 91,-104 139,-105 84.5816,63.9404 72.4817,60.3142 150.1377,74.1437 28,6 18.6826,6.7724 131.8623,-46.1437 46,-84 92,-166 100,-183 9,-16 46,-84 82,-150 216,-393 367,-670 365,-672 -1,-1 -38,3 -82,9 -136,17 -293,-7 -426,-66 l -52,-22 -111,56 c -160,81 -258,105 -421,105 -95,-1 -146,-6 -190,-19 -69,-20 -92,-38 -112,-83 -11,-28 -11,-38 2,-69 8,-19 25,-44 37,-55 25,-22 64,-21 188,1 102,18 235,-2 354,-55 42,-19 55,-29 48,-38 -5,-7 -32,-42 -60,-78 -53,-68 -122,-199 -122,-232 0,-49 66,-117 115,-117 44,0 83,38 126,122 32,61 64,103 119,158 84,83 143,119 246,151 174,54 419,4 537,-110 32,-30 45,-36 82,-36 32,0 50,6 69,24 34,32 50,80 37,114 -11,27 -67,132 -246,457 -32,58 -74,134 -93,170 -38,69 -57,106 -287,525 -198,363 -212,385 -258,425 l -172.0359,65.1796 -111,-1 c -70,-1 -147.3174,-4.2275 -190.3174,-15.2275 60.5909,4.2545 -216.7624,426.5323 -247.3293,439.0719 -89,28 -277,36 -381,16 z"
       id="path18"
       sodipodi:nodetypes="cccccccccccsccccccccsccccccccsccccccccccccccccccscccccccccccccssccccsccccccccccc" />
    <path
       d="m 1855.509,2696.3054 c -96,-38 -117,-173 -36,-234 24,-19 286.4371,-157.0359 321.4371,-157.0359 84,0 -52.6227,185.8084 -79.0299,265.8084 -16.9266,51.2785 -52.4072,93.2275 -98.4072,117.2275 -41,21 -70,23 -108,8 z"
       id="path20"
       sodipodi:nodetypes="ccsscc" />
    <path
       style="fill:#000000;stroke-width:7.5"
       id="path481"
       d="m 2524.9091,1994.9388 c -1683.27273,1190.0408 -841.6364,595.0204 0,0 z"
       sodipodi:nodetypes="cc" />
  </g>
</svg>
